<mxfile host="www.draw.io" modified="2023-04-08T01:57:56.180Z" agent="Mozilla/5.0 (Windows NT 10.0; WOW64) AppleWebKit/537.36 (KHTML, like Gecko) Chrome/105.0.0.0 Safari/537.36" etag="7oekj8JUn1c62weRg7ga" version="21.1.5" type="device">
  <diagram name="第 1 页" id="TwFQMAPoSRNo5Cvnp3NN">
    <mxGraphModel dx="1050" dy="549" grid="0" gridSize="10" guides="1" tooltips="1" connect="1" arrows="1" fold="1" page="1" pageScale="1" pageWidth="827" pageHeight="1169" math="0" shadow="0">
      <root>
        <mxCell id="0" />
        <mxCell id="1" parent="0" />
        <mxCell id="M9bZ8skJzH3Ppq-5cd7r-1" value="" style="shape=table;startSize=0;container=1;collapsible=0;childLayout=tableLayout;fontSize=16;fillColor=#d5e8d4;strokeColor=#82b366;" vertex="1" parent="1">
          <mxGeometry x="155" y="200" width="339" height="40" as="geometry" />
        </mxCell>
        <mxCell id="M9bZ8skJzH3Ppq-5cd7r-2" value="" style="shape=tableRow;horizontal=0;startSize=0;swimlaneHead=0;swimlaneBody=0;strokeColor=inherit;top=0;left=0;bottom=0;right=0;collapsible=0;dropTarget=0;fillColor=none;points=[[0,0.5],[1,0.5]];portConstraint=eastwest;fontSize=16;" vertex="1" parent="M9bZ8skJzH3Ppq-5cd7r-1">
          <mxGeometry width="339" height="40" as="geometry" />
        </mxCell>
        <mxCell id="M9bZ8skJzH3Ppq-5cd7r-15" style="shape=partialRectangle;html=1;whiteSpace=wrap;connectable=0;strokeColor=inherit;overflow=hidden;fillColor=none;top=0;left=0;bottom=0;right=0;pointerEvents=1;fontSize=16;rowspan=1;colspan=2;" vertex="1" parent="M9bZ8skJzH3Ppq-5cd7r-2">
          <mxGeometry width="113" height="40" as="geometry">
            <mxRectangle width="56" height="40" as="alternateBounds" />
          </mxGeometry>
        </mxCell>
        <mxCell id="M9bZ8skJzH3Ppq-5cd7r-14" style="shape=partialRectangle;html=1;whiteSpace=wrap;connectable=0;strokeColor=inherit;overflow=hidden;fillColor=none;top=0;left=0;bottom=0;right=0;pointerEvents=1;fontSize=16;" vertex="1" visible="0" parent="M9bZ8skJzH3Ppq-5cd7r-2">
          <mxGeometry x="56" width="57" height="40" as="geometry">
            <mxRectangle width="57" height="40" as="alternateBounds" />
          </mxGeometry>
        </mxCell>
        <mxCell id="M9bZ8skJzH3Ppq-5cd7r-3" value="" style="shape=partialRectangle;html=1;whiteSpace=wrap;connectable=0;strokeColor=inherit;overflow=hidden;fillColor=none;top=0;left=0;bottom=0;right=0;pointerEvents=1;fontSize=16;rowspan=1;colspan=2;" vertex="1" parent="M9bZ8skJzH3Ppq-5cd7r-2">
          <mxGeometry x="113" width="114" height="40" as="geometry">
            <mxRectangle width="55" height="40" as="alternateBounds" />
          </mxGeometry>
        </mxCell>
        <mxCell id="M9bZ8skJzH3Ppq-5cd7r-4" value="" style="shape=partialRectangle;html=1;whiteSpace=wrap;connectable=0;strokeColor=inherit;overflow=hidden;fillColor=none;top=0;left=0;bottom=0;right=0;pointerEvents=1;fontSize=16;" vertex="1" visible="0" parent="M9bZ8skJzH3Ppq-5cd7r-2">
          <mxGeometry x="168" width="59" height="40" as="geometry">
            <mxRectangle width="59" height="40" as="alternateBounds" />
          </mxGeometry>
        </mxCell>
        <mxCell id="M9bZ8skJzH3Ppq-5cd7r-5" value="" style="shape=partialRectangle;html=1;whiteSpace=wrap;connectable=0;strokeColor=inherit;overflow=hidden;fillColor=none;top=0;left=0;bottom=0;right=0;pointerEvents=1;fontSize=16;rowspan=1;colspan=2;" vertex="1" parent="M9bZ8skJzH3Ppq-5cd7r-2">
          <mxGeometry x="227" width="112" height="40" as="geometry">
            <mxRectangle width="56" height="40" as="alternateBounds" />
          </mxGeometry>
        </mxCell>
        <mxCell id="M9bZ8skJzH3Ppq-5cd7r-16" style="shape=partialRectangle;html=1;whiteSpace=wrap;connectable=0;strokeColor=inherit;overflow=hidden;fillColor=none;top=0;left=0;bottom=0;right=0;pointerEvents=1;fontSize=16;" vertex="1" visible="0" parent="M9bZ8skJzH3Ppq-5cd7r-2">
          <mxGeometry x="283" width="56" height="40" as="geometry">
            <mxRectangle width="56" height="40" as="alternateBounds" />
          </mxGeometry>
        </mxCell>
        <mxCell id="M9bZ8skJzH3Ppq-5cd7r-17" value="" style="shape=table;startSize=0;container=1;collapsible=0;childLayout=tableLayout;fontSize=16;fillColor=#d5e8d4;strokeColor=#82b366;" vertex="1" parent="1">
          <mxGeometry x="155" y="331" width="339" height="40" as="geometry" />
        </mxCell>
        <mxCell id="M9bZ8skJzH3Ppq-5cd7r-18" value="" style="shape=tableRow;horizontal=0;startSize=0;swimlaneHead=0;swimlaneBody=0;strokeColor=inherit;top=0;left=0;bottom=0;right=0;collapsible=0;dropTarget=0;fillColor=none;points=[[0,0.5],[1,0.5]];portConstraint=eastwest;fontSize=16;" vertex="1" parent="M9bZ8skJzH3Ppq-5cd7r-17">
          <mxGeometry width="339" height="40" as="geometry" />
        </mxCell>
        <mxCell id="M9bZ8skJzH3Ppq-5cd7r-19" value="1" style="shape=partialRectangle;html=1;whiteSpace=wrap;connectable=0;strokeColor=inherit;overflow=hidden;fillColor=none;top=0;left=0;bottom=0;right=0;pointerEvents=1;fontSize=16;" vertex="1" parent="M9bZ8skJzH3Ppq-5cd7r-18">
          <mxGeometry width="56" height="40" as="geometry">
            <mxRectangle width="56" height="40" as="alternateBounds" />
          </mxGeometry>
        </mxCell>
        <mxCell id="M9bZ8skJzH3Ppq-5cd7r-20" value="3" style="shape=partialRectangle;html=1;whiteSpace=wrap;connectable=0;strokeColor=inherit;overflow=hidden;fillColor=none;top=0;left=0;bottom=0;right=0;pointerEvents=1;fontSize=16;rowspan=1;colspan=3;" vertex="1" parent="M9bZ8skJzH3Ppq-5cd7r-18">
          <mxGeometry x="56" width="171" height="40" as="geometry">
            <mxRectangle width="57" height="40" as="alternateBounds" />
          </mxGeometry>
        </mxCell>
        <mxCell id="M9bZ8skJzH3Ppq-5cd7r-21" value="" style="shape=partialRectangle;html=1;whiteSpace=wrap;connectable=0;strokeColor=inherit;overflow=hidden;fillColor=none;top=0;left=0;bottom=0;right=0;pointerEvents=1;fontSize=16;" vertex="1" visible="0" parent="M9bZ8skJzH3Ppq-5cd7r-18">
          <mxGeometry x="113" width="55" height="40" as="geometry">
            <mxRectangle width="55" height="40" as="alternateBounds" />
          </mxGeometry>
        </mxCell>
        <mxCell id="M9bZ8skJzH3Ppq-5cd7r-22" value="" style="shape=partialRectangle;html=1;whiteSpace=wrap;connectable=0;strokeColor=inherit;overflow=hidden;fillColor=none;top=0;left=0;bottom=0;right=0;pointerEvents=1;fontSize=16;" vertex="1" visible="0" parent="M9bZ8skJzH3Ppq-5cd7r-18">
          <mxGeometry x="168" width="59" height="40" as="geometry">
            <mxRectangle width="59" height="40" as="alternateBounds" />
          </mxGeometry>
        </mxCell>
        <mxCell id="M9bZ8skJzH3Ppq-5cd7r-23" value="2" style="shape=partialRectangle;html=1;whiteSpace=wrap;connectable=0;strokeColor=inherit;overflow=hidden;fillColor=none;top=0;left=0;bottom=0;right=0;pointerEvents=1;fontSize=16;rowspan=1;colspan=2;" vertex="1" parent="M9bZ8skJzH3Ppq-5cd7r-18">
          <mxGeometry x="227" width="112" height="40" as="geometry">
            <mxRectangle width="56" height="40" as="alternateBounds" />
          </mxGeometry>
        </mxCell>
        <mxCell id="M9bZ8skJzH3Ppq-5cd7r-24" style="shape=partialRectangle;html=1;whiteSpace=wrap;connectable=0;strokeColor=inherit;overflow=hidden;fillColor=none;top=0;left=0;bottom=0;right=0;pointerEvents=1;fontSize=16;" vertex="1" visible="0" parent="M9bZ8skJzH3Ppq-5cd7r-18">
          <mxGeometry x="283" width="56" height="40" as="geometry">
            <mxRectangle width="56" height="40" as="alternateBounds" />
          </mxGeometry>
        </mxCell>
      </root>
    </mxGraphModel>
  </diagram>
</mxfile>
